<?xml version="1.0" encoding="UTF-8" standalone="no"?>
<svg width="239px" height="33px" viewBox="0 0 239 33" version="1.1" xmlns="http://www.w3.org/2000/svg" xmlns:xlink="http://www.w3.org/1999/xlink" xmlns:sketch="http://www.bohemiancoding.com/sketch/ns">
    <!-- Generator: Sketch 3.5.2 (25235) - http://www.bohemiancoding.com/sketch -->
    <title>TM logo Copy</title>
    <desc>Created with Sketch.</desc>
    <defs></defs>
    <g id="Alpha-Ticket" stroke="none" stroke-width="1" fill="none" fill-rule="evenodd" sketch:type="MSPage">
        <g id="SMS-Ticket-Front---alpha" sketch:type="MSArtboardGroup" transform="translate(-20.000000, -19.000000)" fill="#414141">
            <g id="TM-logo-Copy" sketch:type="MSLayerGroup" transform="translate(20.000000, 19.000000)">
                <path d="M146.998,28.494 L146.914,28.494 C144.988,30.926 143.056,32.31 139.95,32.31 C136.05,32.31 133.278,30.128 133.278,26.141 C133.278,19.01 141.255,18.462 146.538,18.462 L148.51,18.462 C148.677,17.875 148.677,17.246 148.677,16.614 C148.677,14.435 146.33,13.803 144.356,13.803 C141.885,13.803 139.489,14.435 137.267,15.484 L138.061,10.992 C140.457,10.151 142.891,9.69 145.406,9.69 C149.727,9.69 153.801,11.286 153.801,16.36 C153.801,19.256 151.658,27.737 151.157,31.807 L146.416,31.807 L146.998,28.494 L146.998,28.494 Z M141.507,28.194 C145.701,28.194 146.998,25.302 147.881,21.821 L145.908,21.821 C143.18,21.821 138.646,22.28 138.646,25.932 C138.646,27.442 140.075,28.194 141.507,28.194 L141.507,28.194 Z" id="Fill-1" sketch:type="MSShapeGroup"></path>
                <path d="M1.225,10.176 L5.295,10.176 L6.266,5.73 L12.305,3.755 L10.92,10.176 L15.957,10.176 L15.077,14.289 L10.037,14.289 L7.985,23.728 C7.859,24.232 7.729,24.99 7.729,25.827 C7.729,27.129 8.615,27.925 9.872,27.925 C10.879,27.925 11.886,27.718 12.6,27.421 L11.635,31.788 C10.669,31.997 9.577,32.295 8.615,32.295 C4.793,32.295 2.105,30.782 2.105,26.623 C2.105,24.947 2.444,23.309 2.821,21.591 L4.417,14.289 L0.346,14.289 L1.225,10.176" id="Fill-2" sketch:type="MSShapeGroup"></path>
                <path d="M18.266,10.176 L23.887,10.176 L19.272,31.788 L13.652,31.788 L18.266,10.176 L18.266,10.176 Z M20.325,0.856 L25.947,0.856 L24.77,6.23 L19.146,6.23 L20.325,0.856 L20.325,0.856 Z" id="Fill-3" sketch:type="MSShapeGroup"></path>
                <path d="M40.872,15.129 C39.777,14.413 38.313,14.035 36.759,14.035 C32.266,14.035 29.75,18.231 29.75,22.301 C29.75,25.113 30.672,27.925 34.536,27.925 C35.918,27.925 37.639,27.547 39.108,26.832 L38.478,31.282 C36.759,32.121 34.911,32.295 33.064,32.295 C27.487,32.295 23.878,28.558 23.878,22.976 C23.878,15.42 28.867,9.675 36.633,9.675 C38.731,9.675 40.746,10.054 42.256,10.513 L40.872,15.129" id="Fill-4" sketch:type="MSShapeGroup"></path>
                <path d="M47.038,0.31 L52.663,0.31 L48.924,18.024 L49.013,18.024 L56.855,10.176 L64.159,10.176 L53.795,20.034 L60.299,31.788 L53.962,31.788 L48.381,20.332 L48.298,20.332 L45.859,31.788 L40.369,31.788 L47.038,0.31" id="Fill-5" sketch:type="MSShapeGroup"></path>
                <path d="M84.431,10.176 L88.497,10.176 L89.465,5.73 L95.511,3.755 L94.122,10.176 L99.161,10.176 L98.276,14.289 L93.239,14.289 L91.185,23.728 C91.06,24.232 90.932,24.99 90.932,25.827 C90.932,27.129 91.815,27.925 93.073,27.925 C94.083,27.925 95.087,27.718 95.803,27.421 L94.837,31.788 C93.871,31.997 92.78,32.295 91.815,32.295 C87.997,32.295 85.308,30.782 85.308,26.623 C85.308,24.947 85.647,23.309 86.027,21.591 L87.619,14.289 L83.545,14.289 L84.431,10.176" id="Fill-6" sketch:type="MSShapeGroup"></path>
                <path d="M82.551,17.896 C82.551,12.401 79.025,9.675 73.695,9.675 C66.605,9.675 61.399,16.136 61.399,22.848 C61.399,29.271 65.595,32.295 71.807,32.295 C74.116,32.295 76.507,31.745 78.686,31.079 L79.398,26.623 C77.302,27.592 75.082,28.179 72.772,28.179 C69.174,28.179 67.072,26.904 66.802,23.506 L66.798,23.506 C66.788,23.305 66.768,23.113 66.768,22.904 C66.768,22.865 66.771,22.824 66.771,22.786 C66.771,22.766 66.77,22.743 66.77,22.724 L66.771,22.724 C66.798,21.242 67.121,19.783 67.686,18.436 C68.766,15.685 70.296,13.786 73.612,13.786 C75.961,13.786 77.18,15.081 77.18,17.393 C77.18,17.896 77.137,18.357 77.048,18.865 L69.357,18.865 C68.859,20.561 68.772,21.697 68.762,22.724 L82.001,22.724 C82.335,21.13 82.551,19.535 82.551,17.896" id="Fill-7" sketch:type="MSShapeGroup"></path>
                <path d="M101.583,12.569 C101.749,11.731 101.92,10.847 102.045,10.176 L107.291,10.176 L106.788,13.073 L106.873,13.073 C108.382,10.847 110.854,9.675 113.501,9.675 C116.061,9.675 118.705,11.184 118.999,13.786 L119.084,13.786 C120.515,10.974 123.662,9.675 126.682,9.675 C129.908,9.675 132.679,12.315 132.679,15.59 C132.679,17.513 132.176,19.705 131.711,21.463 L129.451,31.788 L123.826,31.788 L126.093,21.251 C126.388,19.955 126.808,17.939 126.808,16.637 C126.808,15.044 125.59,14.035 124.162,14.035 C120.255,14.035 119.293,18.568 118.577,21.505 L116.357,31.788 L110.732,31.788 L112.998,21.251 C113.293,19.955 113.712,17.939 113.712,16.637 C113.712,15.044 112.496,14.035 111.065,14.035 C107.252,14.035 106.201,18.609 105.489,21.505 L103.264,31.788 L97.639,31.788 L101.583,12.569" id="Fill-8" sketch:type="MSShapeGroup"></path>
                <path d="M170.503,14.578 C169.898,14.247 168.347,13.786 166.751,13.786 C165.071,13.786 162.975,14.247 162.975,15.966 C162.975,18.694 170.274,19.705 170.274,24.99 C170.274,30.612 165.368,32.295 160.54,32.295 C158.273,32.295 156.01,31.956 153.951,30.992 L155.172,26.498 C156.765,27.378 158.36,28.179 160.54,28.179 C162.427,28.179 164.4,27.547 164.4,25.787 C164.4,22.301 157.103,21.966 157.103,16.554 C157.103,11.48 162.007,9.675 166.456,9.675 C168.513,9.675 170.609,10.054 171.72,10.337 L170.503,14.578" id="Fill-9" sketch:type="MSShapeGroup"></path>
                <path d="M174.095,10.176 L178.167,10.176 L179.129,5.73 L185.171,3.755 L183.79,10.176 L188.822,10.176 L187.941,14.289 L182.907,14.289 L180.85,23.728 C180.726,24.232 180.6,24.99 180.6,25.827 C180.6,27.129 181.48,27.925 182.739,27.925 C183.744,27.925 184.755,27.718 185.47,27.421 L184.503,31.788 C183.538,31.997 182.447,32.295 181.48,32.295 C177.662,32.295 174.977,30.782 174.977,26.623 C174.977,24.947 175.31,23.309 175.69,21.591 L177.282,14.289 L173.217,14.289 L174.095,10.176" id="Fill-10" sketch:type="MSShapeGroup"></path>
                <path d="M212.22,13.073 C212.385,12.147 212.555,11.184 212.72,10.176 L218.095,10.176 L217.34,14.247 L217.423,14.247 C218.432,11.897 221.198,9.675 223.799,9.675 C224.514,9.675 225.272,9.713 225.942,9.88 L224.765,15.379 C224.136,15.168 223.338,15.044 222.626,15.044 C218.641,15.044 216.712,18.609 215.995,22.096 L213.984,31.788 L208.36,31.788 L212.22,13.073" id="Fill-11" sketch:type="MSShapeGroup"></path>
                <path d="M208.318,17.896 C208.318,12.401 204.79,9.675 199.461,9.675 C192.372,9.675 187.169,16.136 187.169,22.848 C187.169,29.271 191.365,32.295 197.575,32.295 C199.886,32.295 202.274,31.745 204.455,31.079 L205.167,26.623 C203.07,27.592 200.847,28.179 198.541,28.179 C194.942,28.179 192.839,26.904 192.573,23.506 L192.565,23.506 C192.556,23.305 192.536,23.113 192.536,22.904 C192.536,22.865 192.536,22.824 192.542,22.786 C192.542,22.766 192.536,22.743 192.536,22.724 L192.542,22.724 C192.565,21.242 192.897,19.783 193.456,18.436 C194.535,15.685 196.066,13.786 199.378,13.786 C201.728,13.786 202.944,15.081 202.944,17.393 C202.944,17.896 202.906,18.357 202.818,18.865 L195.126,18.865 C194.628,20.561 194.535,21.697 194.527,22.724 L207.772,22.724 C208.105,21.13 208.318,19.535 208.318,17.896" id="Fill-12" sketch:type="MSShapeGroup"></path>
                <path d="M197.823,13.158 C197.832,13.133 197.832,13.111 197.832,13.081 L197.823,13.158" id="Fill-13" sketch:type="MSShapeGroup"></path>
                <path d="M197.597,13.174 C197.602,13.147 197.602,13.117 197.602,13.095 L197.597,13.174" id="Fill-14" sketch:type="MSShapeGroup"></path>
                <path d="M233.401,9.701 C236.064,9.701 238.238,11.87 238.238,14.538 C238.238,17.201 236.064,19.368 233.401,19.368 C230.739,19.368 228.566,17.201 228.566,14.538 C228.566,11.87 230.739,9.701 233.401,9.701 L233.401,9.701 Z M233.416,18.65 C235.638,18.65 237.315,16.853 237.315,14.538 C237.315,12.223 235.638,10.425 233.416,10.425 C231.169,10.425 229.488,12.223 229.488,14.538 C229.488,16.853 231.169,18.65 233.416,18.65 L233.416,18.65 Z M231.557,11.697 L233.725,11.697 C235.026,11.697 235.665,12.223 235.665,13.293 C235.665,14.202 235.09,14.86 234.203,14.86 L235.815,17.364 L234.836,17.364 L233.252,14.86 L232.478,14.86 L232.478,17.364 L231.557,17.364 L231.557,11.697 L231.557,11.697 Z M232.478,14.136 L233.575,14.136 C234.282,14.136 234.743,13.987 234.743,13.252 C234.743,12.61 234.166,12.421 233.575,12.421 L232.478,12.421 L232.478,14.136 L232.478,14.136 Z" id="Fill-15" sketch:type="MSShapeGroup"></path>
            </g>
        </g>
    </g>
</svg>